<svg version="1.2" xmlns="http://www.w3.org/2000/svg" viewBox="0 0 1080 1080" width="1080" height="1080">
	<title>hbd</title>
	<style>
		.s0 { fill: #000000 } 
	</style>
	<path id="圖層 1" class="s0" d="m709 969c-1-7.2-1-133-1-133l-10 6-9 6-10 7-14 5-11 2h-10-10l-10-2-9-4-8-5-6-5-5-7-2-10-1-10 1-11 4-6 5-6 8-4 7-3 11-4 8-4 8-3 7-3 6 7 6 8 5 7 3 8 4 9 3 10 4 12 3 9 13-10-2-13-3-7-2-9-3-7-3-6-4-5-4-6-4-5-4-4-6-4 7-6 4-5 2-5-1-4 11 2 7 3 7 4 7 3 7 4 5 4 5 3 4 5 3 6 2 6v7l-1 7-1 7-2 5 8-10 4-7 4-6-1-9-2-6-2-6-4-7-3-5-5-4-5-4-5-5-6-3-7-3-6-2-6-1-7-1-8-1-4 1v-10l-2-8-1-2"/>
	<path id="圖層 2" class="s0" d="m748 784l1-13v-13l-1-12-2-14-3-12-1-14-4-13-3-7-5-17-4-7-5-13-6-12-6-9-6-7-3-7-14 5-13 3-12 2-13 2-16 1-14 2-13-1h-15l-13 1-21-1-16-2-13 1h-15-12l-16-1"/>
	<path id="圖層 3" class="s0" d="m448 601l6-15-7-9-10-1-9 4-5 7 1 8 3 9 12 2"/>
	<path id="圖層 4" class="s0" d="m466 677l3-14-6-7-11-2-8 3-5 8 1 8 5 8 8 2 9-2"/>
	<path id="圖層 5" class="s0" d="m640 778l-2-20-2-19-2-16-4-21-6-19-4-14 1 31-2 17-5 12-6 10-10 12-15 9-14 9-18 8-20 7-18 8-18 4-19 5-19 6-22 6-24 2-24 5-17 2-18 1-18 3h-17l-20 1-18-1-19-4-20-5-21-6-17-9-12-8-11-13-8-14 1-16 5-12 12-16 11-11 13-10 13-11 16-9 18-7 16-6 22-8 19-8 15-4 6 1 1 16 1 13v14l2 13-17 10-10 3-8 4 2 10 2 11 2 9 20-5 18-4 22-4 20-4 16-5-4-15-2-10-2-5-11 2-13 3-2-17-2-19-2-15-1-16-1-13-2-17-1-15-1-15 1-12-1-10-14-2-12 2-8 1-5 13-7 9-9 8-8 5-9 5-9 6 1 12v10l1 11 2 5 10-6 11-9 12-11 11-10 3 16 1 11 2 9"/>
	<path id="圖層 6" class="s0" d="m375 641l11-3 10-1 8-2 11-4-6-8-8-10-3-10-2-10-1-11 2-8 3-10 6-7 9-7 6-3 8-2 8-1h9l9 1 8 5 10 7 5 9 3 9.4 0.4 9.9-1.1 16.7-3.9 11-4.5 6.8-3.3 5.9 11.4 6.3 10 8 6 10 3 12v13 9.9l-2.4 8.7-4.7 9.1-5.6 7.3-7.7 5.3-9.8 4.6-9.6 1.8-10.4-0.2-10.2-0.5-9.4-2.6-7.9-6.2-7-6.9-7.7-13.7-1.2-16.5 1.5-14.5 2.9-11 2.1-6.5 1.9-5.1"/>
	<path id="圖層 7" class="s0" d="m616 863l-16 8-16 9-12 6-16 7-16 6-20 7-18 6-21 6-21 6-20 4-21 5-19 2-21 4-21 2-22 2h-11l2 16 1 13-6-28-16-2-16-2-13-2-11-2-10-3-10-2-4-3-8-15-6-11-6-10-5-11-7-11-8-12-11-11-8-14-7-17-5-21-3-18 1-9 3-12"/>
	<path id="圖層 8" class="s0" d="m191 847l5 3 4 4 7 5 6 4 5 4 8 5 5 5 9 4 7 6 7 2h5l7-2 6-4 9-6 6-2h8l4 4 7 5 5 3 7 4 7 1 8 1 9-3 6-2 8-4 7-5 7-4 5-3h6l8 3 7 3 6 3 8 3 9 1h10l9-3 9-3 9-5 4-5 6-7 6-6 7-4h6l7 2 10 3 7 1 9 1 9-1 7-6 6-6 6-9 6-6 5-3h5l7 1h7l7-2"/>
	<path id="圖層 9" class="s0" d="m310 430l-3 12-2 9-1 9-2 10v10l-1 11v10l1 12 3 10 4 10 6 7 6 7 6 6 4 4 16-2 5-4 8-6 7-5 5-8 2-8-8-5-10-4-9-4-10-4-8-6-2-3h-8l18-1h10l8-1 8-2 4-3 5-4 5-6 3-6v-7l-5-3-6 1-11-4-8-5-7-6-8-6-9-8-6-6-7-8 2-8 2-8 2-11 2-9 4-12 3-11 6-11 6-11 4-10 6-8 4-8 4-5 6-11 5-9 4-7-1-16v-10-10l1-12 1-11 2-13 1-13 3-13 3-13 4-9 5-7 5-1 13 3 9 5 11 8 11 7 13 9 8 9 9 6 9 11 8 9 8 11 5 2-2 10-3 11-2 10-1 9-1 10v11 10l1 11v9l3 10 4 8 5 4 8-3 8-8 6-6 6-9 4-9 1-9-1-9 1-9 1-8 2-7-3 46 2 9 1 8 3 7 3 6 5 6 6 2 8-5 7-8 7-12 3-9 3-10 3-13 3-10 3-9-7 40v9l1 8 3 9 4 6 5 3 6-2 5-6 8-10 5-12 5-13 4-11 4-13 3-11 3-11 2-10 5-10 4-5 5-6 7-7 4-6 4-5 7-7 5-4 8-7 7-8 6-4 9-7 10-9 13-6"/>
	<path id="圖層 10" class="s0" d="m796 453l-6 7-7 7-6 6-8 6-8 4-8 1-10 4-9 3-8 4-6 3-4 3v7l7 7 7 4 10 6 8 4 9 4 8 1-21-4-5 6-7 7-8 3-9 3-6 1-7 5 3 8 8 6 9 5 8 4 9 3 8 1 9-1h8l-6 5-7 3-7 5-6 3-7 4 38-24 10-11 6-14 6-13 4-12 3-13 2-11 2-11 1-9 1-11 1-12v-14l-1-11-2-11-2-12-3-13-3-13-3-10-4-14-6-11-4-11-5-8-7-12-4-12 1-14 2-20v-14-24l-1-13-1-22-1-13-5-13-4-6-7-3-8-1-9 4-9 7-9 11-9 10-8 14-9 11-6 12-7 9-6 10-7 9-8-12-10-6-14-5-12-2-13-1-12-2-11-1-13-1h-11l-12-1-10 1h-11-5l-7-10-7-10-10-7-11-13-10-8-8-7-12-7-11-7-13-8-10-3h-5l-8 1-9 3"/>
	<path id="圖層 11" class="s0" d="m664 417l-7-4h-7l-6 5-3 5-2 7 2 7 5 6 8 2 7-3 8-6 1-10-2-6"/>
	<path id="圖層 12" class="s0" d="m459 397l-7-2-5 2-5 5-3 6 1 8 5 6 9 1 7-3 5-6 3-8-3-6"/>
	<path id="圖層 13" class="s0" d="m629 511l-3 5-3 6-5 5-6 5-7 1-6 1-8-1-9-2-10-4-6-5-8-6-6-7-6-9-7-8-7-10-3-7-4-7-2-6v-7l6-3 7 1h8 5 7l6 2 4 4-2 7-6 8-6 6-6 4-5 3-6 4-4 8-4 6-5 6-4 6-7 4-7 6-10 2h-8l-9-1-5-4-6-4-4-6-3-8-1-7"/>
	<path id="圖層 14" class="s0" d="m506 528v5l1 5 2 7 2 8 3 5 5 5 7 5 6 2 7-2 5-2 7-5 4-7 3-9 1-8 2-8 1-5 1-4"/>
</svg>